# xmcd
#
# Track frame offsets:
#	150
#	9176
#	31315
#	48665
#	68764
#	90635
#	111010
#	133235
#	159528
#	179306
#	196513
#	217372
#
# Disc length: 3160 seconds
#
# Revision: 1
# Processed by: cddbd v1.5.2PL0 Copyright (c) Steve Scherf et al.
# Submitted via: audiograbber 1.83.01
#
DISCID=a10c560c
DTITLE=Rubicon - A holnap tüze
DYEAR=1900
DGENRE=Rock
TTITLE0=Nyitány
TTITLE1=Õrangyal
TTITLE2=A holnap tüze
TTITLE3=Csillagod vezessen
TTITLE4=Léleksivatag
TTITLE5=Felkap a szél
TTITLE6=Merre tart az út?
TTITLE7=Csak bennem bízz
TTITLE8=Elveszett lány
TTITLE9=Ahogy éltem
TTITLE10=Elrohan melletted az élet
TTITLE11=Utolsó emlék
EXTD=
EXTT0=
EXTT1=
EXTT2=
EXTT3=
EXTT4=
EXTT5=
EXTT6=
EXTT7=
EXTT8=
EXTT9=
EXTT10=
EXTT11=
PLAYORDER=
